<svg xmlns="http://www.w3.org/2000/svg" class="icon icon-phone" viewBox="0 0 20 20" fill="none"><path fill="currentColor" d="M15.833 13.117v2.075a1.667 1.667 0 0 1-1.817 1.666 16.5 16.5 0 0 1-7.2-2.558 16.25 16.25 0 0 1-5-5 16.5 16.5 0 0 1-2.558-7.242A1.667 1.667 0 0 1 1.917 1.25h2.075a1.667 1.667 0 0 1 1.667 1.433c.1.75.275 1.483.525 2.184a1.667 1.667 0 0 1-.375 1.758L4.7 7.733a13.333 13.333 0 0 0 5 5l1.108-1.108a1.667 1.667 0 0 1 1.758-.375c.7.25 1.433.425 2.184.525a1.667 1.667 0 0 1 1.083 1.842Z"/></svg>
